<mxfile host="app.diagrams.net" modified="2021-05-02T03:32:07.883Z" agent="5.0 (Macintosh; Intel Mac OS X 10_15_6) AppleWebKit/605.1.15 (KHTML, like Gecko) Version/14.0.3 Safari/605.1.15" etag="Wwfq3mG48zTci3z71hMi" version="14.6.9" type="github">
  <diagram id="-N_LSs6pN1A7yz_mfOR2" name="Page-1">
    <mxGraphModel dx="1288" dy="735" grid="1" gridSize="10" guides="1" tooltips="1" connect="1" arrows="1" fold="1" page="1" pageScale="1" pageWidth="850" pageHeight="1100" math="0" shadow="0">
      <root>
        <mxCell id="0" />
        <mxCell id="1" parent="0" />
        <mxCell id="LQQDcurtEPx64Oy-1DSm-1" value="" style="whiteSpace=wrap;html=1;aspect=fixed;" vertex="1" parent="1">
          <mxGeometry x="40" y="20" width="180" height="180" as="geometry" />
        </mxCell>
        <mxCell id="LQQDcurtEPx64Oy-1DSm-2" value="" style="whiteSpace=wrap;html=1;aspect=fixed;" vertex="1" parent="1">
          <mxGeometry x="630" y="10" width="190" height="190" as="geometry" />
        </mxCell>
        <mxCell id="LQQDcurtEPx64Oy-1DSm-3" value="" style="endArrow=classic;startArrow=classic;html=1;exitX=1;exitY=0.5;exitDx=0;exitDy=0;entryX=-0.005;entryY=0.537;entryDx=0;entryDy=0;entryPerimeter=0;" edge="1" parent="1" source="LQQDcurtEPx64Oy-1DSm-1" target="LQQDcurtEPx64Oy-1DSm-2">
          <mxGeometry width="50" height="50" relative="1" as="geometry">
            <mxPoint x="400" y="380" as="sourcePoint" />
            <mxPoint x="620" y="110" as="targetPoint" />
          </mxGeometry>
        </mxCell>
        <mxCell id="LQQDcurtEPx64Oy-1DSm-4" value="" style="whiteSpace=wrap;html=1;aspect=fixed;" vertex="1" parent="1">
          <mxGeometry x="330" y="200" width="170" height="170" as="geometry" />
        </mxCell>
        <mxCell id="LQQDcurtEPx64Oy-1DSm-5" value="" style="whiteSpace=wrap;html=1;aspect=fixed;" vertex="1" parent="1">
          <mxGeometry x="390" y="350" width="80" height="80" as="geometry" />
        </mxCell>
      </root>
    </mxGraphModel>
  </diagram>
</mxfile>
